<svg width="22" height="23" viewBox="0 0 22 23" fill="none" xmlns="http://www.w3.org/2000/svg">
<path d="M19.25 19.75H2.75C2.02065 19.75 1.32118 19.4603 0.805456 18.9445C0.289731 18.4288 0 17.7293 0 17V6C0 5.27065 0.289731 4.57118 0.805456 4.05546C1.32118 3.53973 2.02065 3.25 2.75 3.25H19.25C19.9793 3.25 20.6788 3.53973 21.1945 4.05546C21.7103 4.57118 22 5.27065 22 6V17C22 17.7293 21.7103 18.4288 21.1945 18.9445C20.6788 19.4603 19.9793 19.75 19.25 19.75ZM2.75 4.625C2.38533 4.625 2.03559 4.76987 1.77773 5.02773C1.51987 5.28559 1.375 5.63533 1.375 6V17C1.375 17.3647 1.51987 17.7144 1.77773 17.9723C2.03559 18.2301 2.38533 18.375 2.75 18.375H19.25C19.6147 18.375 19.9644 18.2301 20.2223 17.9723C20.4801 17.7144 20.625 17.3647 20.625 17V6C20.625 5.63533 20.4801 5.28559 20.2223 5.02773C19.9644 4.76987 19.6147 4.625 19.25 4.625H2.75Z" fill="white"/>
<path d="M11 12.8753C10.8459 12.8752 10.6963 12.8234 10.5751 12.7281L0.950135 5.16565C0.877467 5.11046 0.816514 5.04135 0.77083 4.96236C0.725145 4.88336 0.695643 4.79607 0.684044 4.70556C0.672444 4.61504 0.67898 4.52313 0.703269 4.43517C0.727558 4.34721 0.769115 4.26496 0.825516 4.19323C0.881918 4.1215 0.952036 4.06171 1.03178 4.01735C1.11153 3.97299 1.19931 3.94496 1.29 3.93487C1.38069 3.92479 1.47248 3.93286 1.56003 3.95862C1.64757 3.98438 1.72911 4.02731 1.79989 4.0849L11 11.3133L20.2001 4.0849C20.2709 4.02731 20.3525 3.98438 20.44 3.95862C20.5275 3.93286 20.6193 3.92479 20.71 3.93487C20.8007 3.94496 20.8885 3.97299 20.9682 4.01735C21.048 4.06171 21.1181 4.1215 21.1745 4.19323C21.2309 4.26496 21.2725 4.34721 21.2968 4.43517C21.321 4.52313 21.3276 4.61504 21.316 4.70556C21.3044 4.79607 21.2749 4.88336 21.2292 4.96236C21.1835 5.04135 21.1226 5.11046 21.0499 5.16565L11.4249 12.7281C11.3038 12.8234 11.1541 12.8752 11 12.8753Z" fill="white"/>
<path d="M1.3751 19.0628C1.23914 19.0628 1.10625 19.0225 0.99322 18.9469C0.880188 18.8714 0.792092 18.764 0.740069 18.6384C0.688046 18.5128 0.674431 18.3746 0.700947 18.2413C0.727462 18.1079 0.792916 17.9854 0.889035 17.8893L8.45154 10.3268C8.5812 10.2015 8.75486 10.1322 8.93513 10.1338C9.11539 10.1354 9.28782 10.2077 9.41529 10.3352C9.54276 10.4626 9.61506 10.6351 9.61662 10.8153C9.61819 10.9956 9.5489 11.1692 9.42366 11.2989L1.86116 18.8614C1.73226 18.9903 1.55742 19.0628 1.3751 19.0628Z" fill="white"/>
<path d="M20.6251 19.0628C20.4428 19.0628 20.2679 18.9903 20.139 18.8614L12.5765 11.2989C12.4513 11.1692 12.382 10.9956 12.3836 10.8153C12.3851 10.6351 12.4574 10.4626 12.5849 10.3352C12.7124 10.2077 12.8848 10.1354 13.0651 10.1338C13.2453 10.1322 13.419 10.2015 13.5487 10.3268L21.1112 17.8893C21.2073 17.9854 21.2727 18.1079 21.2992 18.2413C21.3258 18.3746 21.3121 18.5128 21.2601 18.6384C21.2081 18.764 21.12 18.8714 21.007 18.9469C20.8939 19.0225 20.7611 19.0628 20.6251 19.0628Z" fill="white"/>
</svg>
